{
  "accessors": [
    {
      "bufferView": 2,
      "componentType": 5126,
      "count": 7727,
      "max": [
        0.7406578063964844,
        0.1755824089050293,
        1.5144950151443481
      ],
      "min": [
        -0.7405513525009155,
        -0.0018720105290412903,
        -1.4778144359588623
      ],
      "type": "VEC3"
    },
    {
      "bufferView": 2,
      "byteOffset": 92724,
      "componentType": 5126,
      "count": 7727,
      "max": [
        0.9999474287033081,
        0.9999998807907104,
        0.9999955296516418
      ],
      "min": [
        -0.999991774559021,
        -0.9999996423721313,
        -0.999996542930603
      ],
      "type": "VEC3"
    },
    {
      "bufferView": 1,
      "componentType": 5126,
      "count": 7727,
      "max": [
        1.1002449989318848,
        1.0019919872283936
      ],
      "min": [
        0.00954199954867363,
        0.04603400081396103
      ],
      "type": "VEC2"
    },
    {
      "bufferView": 0,
      "componentType": 5125,
      "count": 24375,
      "type": "SCALAR"
    },
    {
      "bufferView": 2,
      "byteOffset": 185448,
      "componentType": 5126,
      "count": 70,
      "max": [
        0.6584245562553406,
        0.17551970481872559,
        -0.5611640214920044
      ],
      "min": [
        -0.5526126623153687,
        -0.001746632158756256,
        -1.3669053316116333
      ],
      "type": "VEC3"
    },
    {
      "bufferView": 2,
      "byteOffset": 186288,
      "componentType": 5126,
      "count": 70,
      "max": [
        0.007351950742304325,
        0.9999922513961792,
        -3.602239303290844e-06
      ],
      "min": [
        -0.0072600203566253185,
        -0.9999800324440002,
        -0.0015885853208601475
      ],
      "type": "VEC3"
    },
    {
      "bufferView": 1,
      "byteOffset": 61816,
      "componentType": 5126,
      "count": 70,
      "max": [
        0.9820489883422852,
        0.5352789759635925
      ],
      "min": [
        0.0,
        0.0
      ],
      "type": "VEC2"
    },
    {
      "bufferView": 0,
      "byteOffset": 97500,
      "componentType": 5125,
      "count": 192,
      "type": "SCALAR"
    },
    {
      "bufferView": 3,
      "componentType": 5126,
      "count": 119,
      "max": [
        4.958333492279053
      ],
      "min": [
        0.0416666679084301
      ],
      "type": "SCALAR"
    },
    {
      "bufferView": 5,
      "componentType": 5126,
      "count": 119,
      "max": [
        0.7071068286895752,
        0.7066895365715027,
        0.7071067690849304,
        0.7071067094802856
      ],
      "min": [
        1.1520232590100932e-07,
        -0.7071067690849304,
        -0.7066894769668579,
        1.152023116901546e-07
      ],
      "type": "VEC4"
    },
    {
      "bufferView": 3,
      "byteOffset": 476,
      "componentType": 5126,
      "count": 3,
      "max": [
        4.958333492279053
      ],
      "min": [
        0.0416666679084301
      ],
      "type": "SCALAR"
    },
    {
      "bufferView": 4,
      "componentType": 5126,
      "count": 3,
      "max": [
        1.0,
        1.0,
        1.0
      ],
      "min": [
        0.9999999403953552,
        0.9999999403953552,
        1.0
      ],
      "type": "VEC3"
    },
    {
      "bufferView": 3,
      "byteOffset": 488,
      "componentType": 5126,
      "count": 150,
      "max": [
        6.25
      ],
      "min": [
        0.0416666679084301
      ],
      "type": "SCALAR"
    },
    {
      "bufferView": 5,
      "byteOffset": 1904,
      "componentType": 5126,
      "count": 150,
      "max": [
        0.7071068286895752,
        0.7071060538291931,
        0.7071067690849304,
        0.7071067094802856
      ],
      "min": [
        1.1520232590100932e-07,
        -0.7071067690849304,
        -0.7071059942245483,
        1.152023116901546e-07
      ],
      "type": "VEC4"
    }
  ],
  "animations": [
    {
      "channels": [
        {
          "sampler": 0,
          "target": {
            "node": 3,
            "path": "rotation"
          }
        },
        {
          "sampler": 1,
          "target": {
            "node": 3,
            "path": "scale"
          }
        }
      ],
      "name": "Action",
      "samplers": [
        {
          "input": 8,
          "interpolation": "LINEAR",
          "output": 9
        },
        {
          "input": 10,
          "interpolation": "LINEAR",
          "output": 11
        }
      ]
    },
    {
      "channels": [
        {
          "sampler": 0,
          "target": {
            "node": 3,
            "path": "rotation"
          }
        }
      ],
      "name": "Cube.001Action",
      "samplers": [
        {
          "input": 12,
          "interpolation": "LINEAR",
          "output": 13
        }
      ]
    }
  ],
  "asset": {
    "extras": {
      "author": "AlaPasta (https://sketchfab.com/ATK-G)",
      "license": "CC-BY-4.0 (http://creativecommons.org/licenses/by/4.0/)",
      "source": "https://sketchfab.com/3d-models/huawei-nova-7i-ce3c3e01a1f84dc5ac002dfd73edd841",
      "title": "Huawei Nova 7i"
    },
    "generator": "Sketchfab-13.74.0",
    "version": "2.0"
  },
  "bufferViews": [
    {
      "buffer": 0,
      "byteLength": 98268,
      "name": "floatBufferViews",
      "target": 34963
    },
    {
      "buffer": 0,
      "byteLength": 62376,
      "byteOffset": 98268,
      "byteStride": 8,
      "name": "floatBufferViews",
      "target": 34962
    },
    {
      "buffer": 0,
      "byteLength": 187128,
      "byteOffset": 160644,
      "byteStride": 12,
      "name": "floatBufferViews",
      "target": 34962
    },
    {
      "buffer": 0,
      "byteLength": 1088,
      "byteOffset": 347772,
      "name": "floatBufferViews"
    },
    {
      "buffer": 0,
      "byteLength": 36,
      "byteOffset": 348860,
      "byteStride": 12,
      "name": "floatBufferViews"
    },
    {
      "buffer": 0,
      "byteLength": 4304,
      "byteOffset": 348896,
      "byteStride": 16,
      "name": "floatBufferViews"
    }
  ],
  "buffers": [
    {
      "byteLength": 353200,
      "uri": "scene.bin"
    }
  ],
  "extensionsUsed": [
    "KHR_materials_transmission"
  ],
  "images": [
    {
      "uri": "textures/material_baseColor.png"
    },
    {
      "uri": "textures/material_metallicRoughness.png"
    }
  ],
  "materials": [
    {
      "doubleSided": true,
      "name": "material",
      "pbrMetallicRoughness": {
        "baseColorTexture": {
          "index": 0
        },
        "metallicFactor": 0.345455,
        "metallicRoughnessTexture": {
          "index": 1
        }
      }
    },
    {
      "alphaMode": "BLEND",
      "extensions": {
        "KHR_materials_transmission": {
          "transmissionFactor": 1.0
        }
      },
      "name": "Glass",
      "pbrMetallicRoughness": {
        "baseColorFactor": [
          1.0,
          0.978572,
          1.0,
          0.25
        ],
        "metallicFactor": 0.40685838280649994,
        "roughnessFactor": 0.0
      }
    }
  ],
  "meshes": [
    {
      "name": "Object_0",
      "primitives": [
        {
          "attributes": {
            "NORMAL": 1,
            "POSITION": 0,
            "TEXCOORD_0": 2
          },
          "indices": 3,
          "material": 0,
          "mode": 4
        }
      ]
    },
    {
      "name": "Object_1",
      "primitives": [
        {
          "attributes": {
            "NORMAL": 5,
            "POSITION": 4,
            "TEXCOORD_0": 6
          },
          "indices": 7,
          "material": 1,
          "mode": 4
        }
      ]
    }
  ],
  "nodes": [
    {
      "children": [
        1
      ],
      "matrix": [
        1.0,
        0.0,
        0.0,
        0.0,
        0.0,
        2.220446049250313e-16,
        -1.0,
        0.0,
        0.0,
        1.0,
        2.220446049250313e-16,
        0.0,
        0.0,
        0.0,
        0.0,
        1.0
      ],
      "name": "Sketchfab_model"
    },
    {
      "children": [
        2
      ],
      "name": "root"
    },
    {
      "children": [
        3
      ],
      "matrix": [
        1.0,
        0.0,
        0.0,
        0.0,
        0.0,
        2.220446049250313e-16,
        1.0,
        0.0,
        0.0,
        -1.0,
        2.220446049250313e-16,
        0.0,
        0.0,
        0.0,
        0.0,
        1.0
      ],
      "name": "GLTF_SceneRootNode"
    },
    {
      "children": [
        4,
        5
      ],
      "name": "Cube.001_1",
      "rotation": [
        0.5,
        0.5,
        -0.4999999701976776,
        0.5000000596046448
      ]
    },
    {
      "mesh": 0,
      "name": "Object_4"
    },
    {
      "mesh": 1,
      "name": "Object_5"
    }
  ],
  "samplers": [
    {
      "magFilter": 9729,
      "minFilter": 9987,
      "wrapS": 10497,
      "wrapT": 10497
    }
  ],
  "scene": 0,
  "scenes": [
    {
      "name": "Sketchfab_Scene",
      "nodes": [
        0
      ]
    }
  ],
  "textures": [
    {
      "sampler": 0,
      "source": 0
    },
    {
      "sampler": 0,
      "source": 1
    }
  ]
}
